<svg xmlns="http://www.w3.org/2000/svg" width="800" height="450" viewBox="0 0 800 450">
  <defs>
    <linearGradient id="g" x1="0%" y1="0%" x2="100%" y2="100%">
      <stop offset="0%" style="stop-color:#f8fafc"/>
      <stop offset="100%" style="stop-color:#f1f5f9"/>
    </linearGradient>
  </defs>
  <rect width="800" height="450" fill="url(#g)"/>
  <!-- Salle de réunion -->
  <!-- Grande table ovale -->
  <ellipse cx="400" cy="250" rx="280" ry="100" fill="#cbd5e1" opacity="0.6"/>
  <ellipse cx="400" cy="250" rx="260" ry="85" fill="#e2e8f0" opacity="0.7"/>
  <!-- Chaises autour -->
  <ellipse cx="160" cy="220" rx="30" ry="22" fill="#94a3b8" opacity="0.7"/>
  <ellipse cx="200" cy="170" rx="30" ry="22" fill="#94a3b8" opacity="0.7"/>
  <ellipse cx="280" cy="145" rx="30" ry="22" fill="#94a3b8" opacity="0.7"/>
  <ellipse cx="400" cy="140" rx="30" ry="22" fill="#94a3b8" opacity="0.7"/>
  <ellipse cx="520" cy="145" rx="30" ry="22" fill="#94a3b8" opacity="0.7"/>
  <ellipse cx="600" cy="170" rx="30" ry="22" fill="#94a3b8" opacity="0.7"/>
  <ellipse cx="640" cy="220" rx="30" ry="22" fill="#94a3b8" opacity="0.7"/>
  <ellipse cx="640" cy="280" rx="30" ry="22" fill="#94a3b8" opacity="0.7"/>
  <ellipse cx="400" cy="360" rx="30" ry="22" fill="#94a3b8" opacity="0.7"/>
  <ellipse cx="160" cy="280" rx="30" ry="22" fill="#94a3b8" opacity="0.7"/>
  <!-- Tableau -->
  <rect x="300" y="60" width="200" height="60" rx="4" fill="white" opacity="0.9"/>
  <rect x="310" y="70" width="180" height="40" rx="3" fill="#0ea5e9" opacity="0.2"/>
  <text x="400" y="425" text-anchor="middle" font-family="sans-serif" font-size="18" fill="#334155" opacity="0.7">Salle de réunion partagée</text>
</svg>
