<svg xmlns="http://www.w3.org/2000/svg" width="800" height="450" viewBox="0 0 800 450">
  <defs>
    <linearGradient id="sky" x1="0%" y1="0%" x2="0%" y2="100%">
      <stop offset="0%" style="stop-color:#fef3c7"/>
      <stop offset="100%" style="stop-color:#fde68a"/>
    </linearGradient>
  </defs>
  <rect width="800" height="450" fill="url(#sky)"/>
  <!-- Bâtiment moderne -->
  <rect x="200" y="100" width="400" height="280" rx="6" fill="white" opacity="0.85"/>
  <!-- Fenêtres grille -->
  <rect x="230" y="130" width="70" height="50" rx="3" fill="#7dd3fc" opacity="0.7"/>
  <rect x="320" y="130" width="70" height="50" rx="3" fill="#7dd3fc" opacity="0.7"/>
  <rect x="410" y="130" width="70" height="50" rx="3" fill="#7dd3fc" opacity="0.7"/>
  <rect x="500" y="130" width="70" height="50" rx="3" fill="#7dd3fc" opacity="0.7"/>
  <rect x="230" y="200" width="70" height="50" rx="3" fill="#93c5fd" opacity="0.7"/>
  <rect x="320" y="200" width="70" height="50" rx="3" fill="#93c5fd" opacity="0.7"/>
  <rect x="410" y="200" width="70" height="50" rx="3" fill="#93c5fd" opacity="0.7"/>
  <rect x="500" y="200" width="70" height="50" rx="3" fill="#93c5fd" opacity="0.7"/>
  <!-- Porte d'entrée -->
  <rect x="350" y="295" width="100" height="85" rx="4" fill="#0284c7" opacity="0.6"/>
  <!-- Sol -->
  <rect x="0" y="360" width="800" height="90" fill="#fef9c3" opacity="0.7"/>
  <!-- Palmiers -->
  <rect x="100" y="250" width="12" height="130" fill="#78350f" opacity="0.6"/>
  <ellipse cx="106" cy="240" rx="35" ry="50" fill="#16a34a" opacity="0.7" transform="rotate(-15, 106, 240)"/>
  <rect x="680" y="250" width="12" height="130" fill="#78350f" opacity="0.6"/>
  <ellipse cx="686" cy="240" rx="35" ry="50" fill="#15803d" opacity="0.7" transform="rotate(15, 686, 240)"/>
  <text x="400" y="425" text-anchor="middle" font-family="sans-serif" font-size="18" fill="#92400e" opacity="0.7">Immeuble résidentiel — Dakar</text>
</svg>
